<svg xmlns="http://www.w3.org/2000/svg" viewBox="0 0 1600 900" width="1600" height="900">
  <defs>
    <radialGradient id="ytWash" cx="50%" cy="50%" r="62%">
      <stop offset="0%" stop-color="#A5A0FF" stop-opacity="0.26"/>
      <stop offset="56%" stop-color="#635BFF" stop-opacity="0.12"/>
      <stop offset="100%" stop-color="#FFFFFF" stop-opacity="0"/>
    </radialGradient>

    <clipPath id="ytWashClip">
      <ellipse cx="800" cy="450" rx="575" ry="282"/>
    </clipPath>

    <filter id="ytShadow" x="-20%" y="-20%" width="140%" height="140%">
      <feOffset dx="0" dy="14" in="SourceAlpha" result="offset"/>
      <feGaussianBlur stdDeviation="14" in="offset" result="blur"/>
      <feFlood flood-color="#0A2540" flood-opacity="0.08" result="color"/>
      <feComposite in="color" in2="blur" operator="in" result="shadow"/>
      <feMerge>
        <feMergeNode in="shadow"/>
        <feMergeNode in="SourceGraphic"/>
      </feMerge>
    </filter>
  </defs>

  <rect width="1600" height="900" fill="#FFFFFF"/>
  <rect width="1600" height="900" fill="url(#ytWash)" clip-path="url(#ytWashClip)"/>

  <g filter="url(#ytShadow)">
    <rect x="430" y="270" width="740" height="410" rx="34" fill="#FFFFFF" stroke="#E6EBF1" stroke-width="1.4"/>
    <rect x="468" y="312" width="664" height="286" rx="24" fill="#F6F9FC" stroke="#E6EBF1" stroke-width="1.4"/>
    <path d="M762 399l112 64-112 64V399z" fill="#635BFF"/>
    <rect x="504" y="630" width="592" height="10" rx="5" fill="#E6EBF1"/>
    <rect x="504" y="630" width="248" height="10" rx="5" fill="#635BFF"/>
    <circle cx="752" cy="635" r="9" fill="#FFFFFF" stroke="#635BFF" stroke-width="1.4"/>
    <rect x="504" y="656" width="132" height="12" rx="6" fill="#E6EBF1"/>
    <rect x="658" y="656" width="84" height="12" rx="6" fill="#A5A0FF" fill-opacity="0.55"/>
    <rect x="954" y="656" width="142" height="12" rx="6" fill="#E6EBF1"/>
  </g>

  <g filter="url(#ytShadow)">
    <path d="M246 238h232c18 0 32 14 32 32v114c0 18-14 32-32 32H326l-44 40v-40h-36c-18 0-32-14-32-32V270c0-18 14-32 32-32z" fill="#FFFFFF" stroke="#E6EBF1" stroke-width="1.4"/>
    <path d="M268 318c28-34 55 36 84 0s55 24 84-12" fill="none" stroke="#635BFF" stroke-width="1.4" stroke-linecap="round" stroke-linejoin="round"/>
    <rect x="268" y="360" width="168" height="12" rx="6" fill="#E6EBF1"/>
    <rect x="268" y="386" width="112" height="12" rx="6" fill="#A5A0FF" fill-opacity="0.5"/>
  </g>

  <g filter="url(#ytShadow)">
    <rect x="1096" y="196" width="262" height="160" rx="26" fill="#FFFFFF" stroke="#E6EBF1" stroke-width="1.4"/>
    <path d="M1136 296h28c10 0 18-8 18-18v-46c0-8-6-14-14-14h-20l4-24c1-7-4-14-11-15-5-1-10 2-12 6l-28 50v61h35z" fill="none" stroke="#0A2540" stroke-width="1.4" stroke-linecap="round" stroke-linejoin="round"/>
    <path d="M1100 238h28v70h-28z" fill="none" stroke="#635BFF" stroke-width="1.4" stroke-linejoin="round"/>
    <rect x="1210" y="236" width="104" height="12" rx="6" fill="#E6EBF1"/>
    <rect x="1210" y="264" width="78" height="12" rx="6" fill="#A5A0FF" fill-opacity="0.55"/>
    <rect x="1210" y="292" width="124" height="12" rx="6" fill="#E6EBF1"/>
  </g>

  <g filter="url(#ytShadow)">
    <rect x="1196" y="424" width="238" height="188" rx="28" fill="#FFFFFF" stroke="#E6EBF1" stroke-width="1.4"/>
    <circle cx="1240" cy="474" r="14" fill="#635BFF" fill-opacity="0.9"/>
    <rect x="1272" y="464" width="108" height="12" rx="6" fill="#E6EBF1"/>
    <rect x="1272" y="492" width="78" height="12" rx="6" fill="#A5A0FF" fill-opacity="0.55"/>
    <rect x="1230" y="544" width="154" height="12" rx="6" fill="#E6EBF1"/>
    <rect x="1230" y="570" width="102" height="12" rx="6" fill="#E6EBF1"/>
    <circle cx="1390" cy="550" r="7" fill="#635BFF"/>
    <circle cx="1350" cy="576" r="7" fill="#A5A0FF"/>
  </g>

  <g filter="url(#ytShadow)">
    <path d="M276 532h236c18 0 32 14 32 32v102c0 18-14 32-32 32H378l-42 38v-38h-60c-18 0-32-14-32-32V564c0-18 14-32 32-32z" fill="#FFFFFF" stroke="#E6EBF1" stroke-width="1.4"/>
    <rect x="294" y="586" width="164" height="12" rx="6" fill="#E6EBF1"/>
    <rect x="294" y="614" width="118" height="12" rx="6" fill="#A5A0FF" fill-opacity="0.55"/>
    <path d="M438 650c18-34 36 22 54-8s30 14 44-18" fill="none" stroke="#635BFF" stroke-width="1.4" stroke-linecap="round" stroke-linejoin="round"/>
  </g>

  <g filter="url(#ytShadow)">
    <rect x="1018" y="636" width="274" height="154" rx="26" fill="#F6F9FC" stroke="#E6EBF1" stroke-width="1.4"/>
    <path d="M1064 730c26-58 52 28 84-24 28-46 62 18 96-42" fill="none" stroke="#635BFF" stroke-width="1.4" stroke-linecap="round" stroke-linejoin="round"/>
    <rect x="1064" y="680" width="86" height="12" rx="6" fill="#E6EBF1"/>
    <rect x="1172" y="680" width="70" height="12" rx="6" fill="#A5A0FF" fill-opacity="0.55"/>
    <circle cx="1250" cy="678" r="7" fill="#0A2540"/>
  </g>

  <g filter="url(#ytShadow)">
    <rect x="584" y="130" width="300" height="126" rx="24" fill="#FFFFFF" stroke="#E6EBF1" stroke-width="1.4"/>
    <circle cx="632" cy="192" r="14" fill="#A5A0FF"/>
    <rect x="664" y="166" width="136" height="12" rx="6" fill="#E6EBF1"/>
    <rect x="664" y="194" width="176" height="12" rx="6" fill="#E6EBF1"/>
    <rect x="664" y="222" width="102" height="12" rx="6" fill="#635BFF" fill-opacity="0.58"/>
  </g>

  <g filter="url(#ytShadow)">
    <rect x="690" y="708" width="248" height="104" rx="22" fill="#FFFFFF" stroke="#E6EBF1" stroke-width="1.4"/>
    <path d="M728 778h26c9 0 16-7 16-16v-34c0-7-5-12-12-12h-16l3-18c1-6-4-12-10-13-4-1-8 2-10 5l-22 38v50h25z" fill="none" stroke="#0A2540" stroke-width="1.4" stroke-linecap="round" stroke-linejoin="round"/>
    <path d="M704 730h22v58h-22z" fill="none" stroke="#635BFF" stroke-width="1.4" stroke-linejoin="round"/>
    <rect x="802" y="734" width="92" height="11" rx="5.5" fill="#E6EBF1"/>
    <rect x="802" y="760" width="68" height="11" rx="5.5" fill="#A5A0FF" fill-opacity="0.55"/>
  </g>

  <g opacity="0.72">
    <circle cx="390" cy="190" r="6" fill="#635BFF"/>
    <circle cx="1372" cy="382" r="5" fill="#A5A0FF"/>
    <circle cx="978" cy="152" r="5" fill="#A5A0FF"/>
    <circle cx="566" cy="742" r="5" fill="#635BFF"/>
    <path d="M934 180h52M960 154v52" stroke="#A5A0FF" stroke-width="1.4" stroke-linecap="round"/>
    <path d="M1322 696h46M1345 673v46" stroke="#635BFF" stroke-width="1.4" stroke-linecap="round"/>
  </g>
</svg>
