<svg xmlns="http://www.w3.org/2000/svg" viewBox="0 0 800 450" role="img" aria-label="Take away deliverables illustration">
  <defs>
    <radialGradient id="takeawayGlow" cx="50%" cy="50%" r="50%">
      <stop offset="0%" stop-color="#635BFF" stop-opacity="0.18"/>
      <stop offset="60%" stop-color="#635BFF" stop-opacity="0.08"/>
      <stop offset="100%" stop-color="#635BFF" stop-opacity="0"/>
    </radialGradient>
    <filter id="takeawayShadow" x="-35%" y="-45%" width="170%" height="210%">
      <feGaussianBlur in="SourceAlpha" stdDeviation="18" result="blur"/>
      <feOffset in="blur" dx="0" dy="18" result="offset"/>
      <feFlood flood-color="#635BFF" flood-opacity="0.25" result="color"/>
      <feComposite in="color" in2="offset" operator="in" result="shadow"/>
      <feMerge>
        <feMergeNode in="shadow"/>
        <feMergeNode in="SourceGraphic"/>
      </feMerge>
    </filter>
  </defs>

  <ellipse cx="414" cy="246" rx="285" ry="158" fill="url(#takeawayGlow)"/>

  <g filter="url(#takeawayShadow)">
    <g transform="translate(252 142) rotate(-12 70 95)">
      <rect width="140" height="190" rx="18" fill="#FFFFFF" fill-opacity="0.04" stroke="#FFFFFF" stroke-opacity="0.14" stroke-width="1.4"/>
      <rect x="18" y="18" width="36" height="16" rx="8" fill="#635BFF" fill-opacity="0.3"/>
      <rect x="27" y="24" width="18" height="4" rx="2" fill="#FFFFFF" fill-opacity="0.65"/>
      <rect x="18" y="50" width="80" height="6" rx="3" fill="#635BFF" fill-opacity="0.85"/>
      <rect x="18" y="78" width="94" height="10" rx="5" fill="#FFFFFF" fill-opacity="0.45"/>
      <rect x="18" y="100" width="76" height="8" rx="4" fill="#FFFFFF" fill-opacity="0.22"/>
      <rect x="18" y="120" width="88" height="8" rx="4" fill="#FFFFFF" fill-opacity="0.22"/>
      <rect x="18" y="140" width="62" height="8" rx="4" fill="#FFFFFF" fill-opacity="0.22"/>
    </g>

    <g transform="translate(322 126) rotate(-4 70 95)">
      <rect width="140" height="190" rx="18" fill="#FFFFFF" fill-opacity="0.04" stroke="#FFFFFF" stroke-opacity="0.14" stroke-width="1.4"/>
      <rect x="18" y="18" width="36" height="16" rx="8" fill="#635BFF" fill-opacity="0.3"/>
      <rect x="27" y="24" width="18" height="4" rx="2" fill="#FFFFFF" fill-opacity="0.65"/>
      <rect x="18" y="50" width="80" height="6" rx="3" fill="#635BFF" fill-opacity="0.85"/>
      <rect x="18" y="78" width="92" height="10" rx="5" fill="#FFFFFF" fill-opacity="0.45"/>
      <rect x="18" y="100" width="82" height="8" rx="4" fill="#FFFFFF" fill-opacity="0.22"/>
      <rect x="18" y="120" width="96" height="8" rx="4" fill="#FFFFFF" fill-opacity="0.22"/>
      <rect x="18" y="140" width="70" height="8" rx="4" fill="#FFFFFF" fill-opacity="0.22"/>
    </g>

    <g transform="translate(388 126) rotate(4 70 95)">
      <rect width="140" height="190" rx="18" fill="#FFFFFF" fill-opacity="0.04" stroke="#FFFFFF" stroke-opacity="0.14" stroke-width="1.4"/>
      <rect x="18" y="18" width="36" height="16" rx="8" fill="#635BFF" fill-opacity="0.3"/>
      <rect x="27" y="24" width="18" height="4" rx="2" fill="#FFFFFF" fill-opacity="0.65"/>
      <rect x="18" y="50" width="80" height="6" rx="3" fill="#635BFF" fill-opacity="0.85"/>
      <rect x="18" y="78" width="96" height="10" rx="5" fill="#FFFFFF" fill-opacity="0.45"/>
      <rect x="18" y="100" width="84" height="8" rx="4" fill="#FFFFFF" fill-opacity="0.22"/>
      <rect x="18" y="120" width="72" height="8" rx="4" fill="#FFFFFF" fill-opacity="0.22"/>
      <rect x="18" y="140" width="90" height="8" rx="4" fill="#FFFFFF" fill-opacity="0.22"/>
    </g>

    <g transform="translate(458 142) rotate(12 70 95)">
      <rect width="140" height="190" rx="18" fill="#FFFFFF" fill-opacity="0.04" stroke="#FFFFFF" stroke-opacity="0.14" stroke-width="1.4"/>
      <rect x="18" y="18" width="36" height="16" rx="8" fill="#635BFF" fill-opacity="0.3"/>
      <rect x="27" y="24" width="18" height="4" rx="2" fill="#FFFFFF" fill-opacity="0.65"/>
      <rect x="18" y="50" width="80" height="6" rx="3" fill="#635BFF" fill-opacity="0.85"/>
      <rect x="18" y="78" width="92" height="10" rx="5" fill="#FFFFFF" fill-opacity="0.45"/>
      <rect x="18" y="100" width="78" height="8" rx="4" fill="#FFFFFF" fill-opacity="0.22"/>
      <rect x="18" y="120" width="88" height="8" rx="4" fill="#FFFFFF" fill-opacity="0.22"/>
      <rect x="18" y="140" width="64" height="8" rx="4" fill="#FFFFFF" fill-opacity="0.22"/>
      <circle cx="112" cy="158" r="14" fill="#635BFF"/>
      <path d="M105 158l5 5 10-11" fill="none" stroke="#FFFFFF" stroke-width="1.8" stroke-linecap="round" stroke-linejoin="round"/>
    </g>
  </g>

  <g filter="url(#takeawayShadow)">
    <rect x="240" y="366" width="320" height="4" rx="2" fill="#FFFFFF" fill-opacity="0.22"/>
    <rect x="240" y="366" width="256" height="4" rx="2" fill="#635BFF"/>
  </g>

  <g fill="none" stroke="#A5A0FF" stroke-width="1.8" stroke-linecap="round" stroke-linejoin="round" filter="url(#takeawayShadow)">
    <path d="M586 92l42 92"/>
    <path d="M586 92l74 38"/>
    <path d="M628 184l11-37"/>
    <path d="M628 184l-31-20"/>
  </g>

  <g fill="none" stroke="#A5A0FF" stroke-width="1.4" stroke-linecap="round" opacity="0.7">
    <path d="M204 112v18"/>
    <path d="M195 121h18"/>
    <circle cx="612" cy="268" r="4" fill="#635BFF" stroke="none"/>
    <circle cx="180" cy="292" r="5" fill="#A5A0FF" stroke="none" opacity="0.75"/>
  </g>
</svg>
