<svg xmlns="http://www.w3.org/2000/svg" viewBox="0 0 1600 300" fill="none">
  <defs>
    <filter id="softShadow" x="1072" y="26" width="516" height="276" filterUnits="userSpaceOnUse" color-interpolation-filters="sRGB">
      <feDropShadow dx="0" dy="14" stdDeviation="16" flood-color="#0A2540" flood-opacity="0.1"/>
    </filter>

    <radialGradient id="insightGlow" cx="50%" cy="50%" r="50%">
      <stop offset="0%" stop-color="#635BFF" stop-opacity="0.12"/>
      <stop offset="68%" stop-color="#635BFF" stop-opacity="0.04"/>
      <stop offset="100%" stop-color="#635BFF" stop-opacity="0"/>
    </radialGradient>

    <clipPath id="glowClip">
      <ellipse cx="1330" cy="150" rx="250" ry="102"/>
    </clipPath>
  </defs>

  <g clip-path="url(#glowClip)">
    <ellipse cx="1330" cy="150" rx="250" ry="102" fill="url(#insightGlow)"/>
  </g>

  <g opacity="0.7" stroke="#635BFF" stroke-width="1.4" stroke-linecap="round">
    <path d="M247 48V64"/>
    <path d="M239 56H255"/>
    <circle cx="264" cy="48" r="3" fill="#635BFF" stroke="none" opacity="0.55"/>
  </g>

  <g opacity="0.7" stroke="#635BFF" stroke-width="1.4" stroke-linecap="round">
    <path d="M1004 226V241"/>
    <path d="M996.5 233.5H1011.5"/>
    <circle cx="1019" cy="221" r="3" fill="#635BFF" stroke="none" opacity="0.55"/>
  </g>

  <g>
    <circle cx="98" cy="151" r="4" fill="#E6EBF1" opacity="0.9"/>
    <circle cx="126" cy="203" r="3" fill="#E6EBF1" opacity="0.9"/>
    <circle cx="143" cy="91" r="5" fill="#A5A0FF" opacity="0.38"/>
    <circle cx="168" cy="171" r="4" fill="#E6EBF1" opacity="0.9"/>
    <circle cx="192" cy="121" r="3" fill="#E6EBF1" opacity="0.9"/>
    <circle cx="218" cy="232" r="4" fill="#A5A0FF" opacity="0.48"/>
    <circle cx="238" cy="82" r="3" fill="#E6EBF1" opacity="0.9"/>
    <circle cx="265" cy="185" r="5" fill="#635BFF" opacity="0.68"/>
    <circle cx="286" cy="138" r="4" fill="#E6EBF1" opacity="0.9"/>
    <circle cx="314" cy="218" r="3" fill="#E6EBF1" opacity="0.9"/>
    <circle cx="336" cy="104" r="5" fill="#A5A0FF" opacity="0.42"/>
    <circle cx="361" cy="158" r="4" fill="#E6EBF1" opacity="0.9"/>
    <circle cx="389" cy="73" r="3" fill="#0A2540" opacity="0.25"/>
    <circle cx="411" cy="199" r="5" fill="#E6EBF1" opacity="0.9"/>
    <circle cx="437" cy="127" r="4" fill="#A5A0FF" opacity="0.52"/>
    <circle cx="462" cy="237" r="3" fill="#E6EBF1" opacity="0.9"/>
    <circle cx="489" cy="92" r="4" fill="#E6EBF1" opacity="0.9"/>
    <circle cx="511" cy="174" r="5" fill="#635BFF" opacity="0.75"/>
    <circle cx="534" cy="116" r="3" fill="#E6EBF1" opacity="0.9"/>
    <circle cx="557" cy="213" r="4" fill="#A5A0FF" opacity="0.45"/>
    <circle cx="581" cy="144" r="3" fill="#E6EBF1" opacity="0.9"/>
    <circle cx="604" cy="79" r="5" fill="#E6EBF1" opacity="0.9"/>
    <circle cx="626" cy="196" r="4" fill="#635BFF" opacity="0.62"/>
    <circle cx="646" cy="104" r="3" fill="#A5A0FF" opacity="0.54"/>
    <circle cx="663" cy="227" r="5" fill="#E6EBF1" opacity="0.9"/>
    <circle cx="681" cy="160" r="4" fill="#E6EBF1" opacity="0.9"/>
    <circle cx="697" cy="88" r="3" fill="#A5A0FF" opacity="0.36"/>
    <circle cx="711" cy="189" r="5" fill="#E6EBF1" opacity="0.9"/>
    <circle cx="724" cy="130" r="4" fill="#E6EBF1" opacity="0.9"/>
    <circle cx="739" cy="231" r="3" fill="#A5A0FF" opacity="0.5"/>
    <circle cx="752" cy="76" r="4" fill="#E6EBF1" opacity="0.9"/>
    <circle cx="766" cy="153" r="5" fill="#635BFF" opacity="0.72"/>
    <circle cx="778" cy="204" r="3" fill="#E6EBF1" opacity="0.9"/>
    <circle cx="792" cy="109" r="4" fill="#A5A0FF" opacity="0.46"/>
    <circle cx="804" cy="174" r="3" fill="#E6EBF1" opacity="0.9"/>
    <circle cx="816" cy="224" r="5" fill="#0A2540" opacity="0.25"/>
    <circle cx="827" cy="93" r="4" fill="#E6EBF1" opacity="0.9"/>
    <circle cx="839" cy="136" r="3" fill="#A5A0FF" opacity="0.4"/>
    <circle cx="849" cy="195" r="5" fill="#E6EBF1" opacity="0.9"/>
    <circle cx="858" cy="70" r="3" fill="#E6EBF1" opacity="0.9"/>
    <circle cx="867" cy="165" r="4" fill="#635BFF" opacity="0.83"/>
    <circle cx="876" cy="216" r="5" fill="#A5A0FF" opacity="0.55"/>
    <circle cx="884" cy="117" r="3" fill="#E6EBF1" opacity="0.9"/>
    <circle cx="894" cy="146" r="4" fill="#E6EBF1" opacity="0.9"/>
    <circle cx="901" cy="239" r="3" fill="#A5A0FF" opacity="0.44"/>
    <circle cx="653" cy="133" r="4" fill="#E6EBF1" opacity="0.9"/>
    <circle cx="709" cy="113" r="5" fill="#A5A0FF" opacity="0.47"/>
    <circle cx="746" cy="183" r="3" fill="#E6EBF1" opacity="0.9"/>
    <circle cx="788" cy="148" r="4" fill="#E6EBF1" opacity="0.9"/>
    <circle cx="812" cy="122" r="5" fill="#635BFF" opacity="0.66"/>
    <circle cx="832" cy="181" r="3" fill="#E6EBF1" opacity="0.9"/>
    <circle cx="852" cy="151" r="4" fill="#A5A0FF" opacity="0.49"/>
    <circle cx="871" cy="101" r="5" fill="#E6EBF1" opacity="0.9"/>
    <circle cx="889" cy="185" r="3" fill="#E6EBF1" opacity="0.9"/>
    <circle cx="913" cy="128" r="4" fill="#A5A0FF" opacity="0.43"/>
    <circle cx="928" cy="170" r="3" fill="#E6EBF1" opacity="0.9"/>

    <circle cx="662" cy="153" r="12" fill="#635BFF" stroke="#FFFFFF" stroke-width="1.4"/>
    <circle cx="783" cy="98" r="10" fill="#635BFF" stroke="#FFFFFF" stroke-width="1.4"/>
    <circle cx="844" cy="210" r="14" fill="#635BFF" stroke="#FFFFFF" stroke-width="1.4"/>
    <circle cx="904" cy="139" r="11" fill="#635BFF" stroke="#FFFFFF" stroke-width="1.4"/>
  </g>

  <g stroke="#635BFF" stroke-width="1.4" stroke-linecap="round" stroke-dasharray="2 5" opacity="0.6">
    <path d="M662 153C752 128 839 123 1120 150"/>
    <path d="M783 98C877 87 984 118 1120 150"/>
    <path d="M844 210C937 214 1014 179 1120 150"/>
    <path d="M904 139C974 129 1046 139 1120 150"/>
  </g>

  <g filter="url(#softShadow)">
    <rect x="1120" y="60" width="420" height="180" rx="24" fill="#FFFFFF" fill-opacity="0.98" stroke="#E6EBF1" stroke-width="1.4"/>

    <rect x="1150" y="88" width="60" height="18" rx="9" fill="#635BFF" opacity="0.18"/>
    <rect x="1164" y="94.5" width="32" height="5" rx="2.5" fill="#635BFF"/>

    <g stroke="#635BFF" stroke-width="1.4" stroke-linecap="round" opacity="0.9">
      <path d="M1495 87V104"/>
      <path d="M1486.5 95.5H1503.5"/>
      <circle cx="1510" cy="85" r="2.8" fill="#635BFF" stroke="none" opacity="0.5"/>
    </g>

    <rect x="1150" y="130" width="260" height="12" rx="6" fill="#0A2540" opacity="0.85"/>
    <rect x="1150" y="152" width="180" height="12" rx="6" fill="#635BFF" opacity="0.9"/>

    <circle cx="1157" cy="191" r="7" fill="#A5A0FF" opacity="0.85"/>
    <rect x="1176" y="187" width="72" height="8" rx="4" fill="#E6EBF1"/>

    <circle cx="1157" cy="215" r="7" fill="#A5A0FF" opacity="0.85"/>
    <rect x="1176" y="211" width="60" height="8" rx="4" fill="#E6EBF1"/>

    <circle cx="1500" cy="220" r="16" fill="#635BFF"/>
    <path d="M1492.5 220.5L1498.2 226.2L1508.5 214.5" stroke="#FFFFFF" stroke-width="1.8" stroke-linecap="round" stroke-linejoin="round"/>
  </g>
</svg>
